<?xml version="1.0" encoding="UTF-8"?>
<svg id="Layer_2" data-name="Layer 2" xmlns="http://www.w3.org/2000/svg" viewBox="0 0 79.45 79.49">
  <defs>
    <style>
      .cls-1 {
        fill: #fff;
      }

      .cls-2 {
        fill: none;
        stroke: #fff;
        stroke-miterlimit: 10;
        stroke-width: 2px;
      }
    </style>
  </defs>
  <g id="Calque_1" data-name="Calque 1">
    <g>
      <ellipse class="cls-2" cx="39.73" cy="39.75" rx="38.73" ry="38.75"/>
      <g id="ww9gcf">
        <g>
          <path class="cls-1" d="M24.42,20.44c-1,.46-1.81,1.16-2.41,2.09-.6,.93-.91,1.97-.91,3.1,0,1.61,0,3.22,0,4.83v1.99s0,2.64,0,2.64v9.89s0,1.69,0,1.69c0,1.7,0,3.39,0,5.09,0,.42,.05,.83,.15,1.24,.31,1.23,.97,2.21,2.03,3.02,1.07,.81,2.25,1.21,3.61,1.21,1.1,0,2.18,0,3.27,0h2.43s2.41,0,2.41,0h23.36V26.06H28.58v-5.86c-.62-.19-1.16-.27-1.68-.28h-.06v-.26h0v.26c-.86,0-1.67,.18-2.41,.52Zm4.15,26.16V26.56h29.28v30.14h-7.51s-6.72,0-6.72,0h-13.84c-.3,0-.61,0-.91,0-.3,0-.61,0-.91,0-.38,0-.76,0-1.14,0-1.85-.03-3.3-.8-4.29-2.27-1.1-1.62-1.23-3.41-.4-5.17,.78-1.65,2.13-2.63,4-2.91,.22-.03,.45-.05,.68-.05,.47,0,.95,.07,1.46,.21l.32,.09Zm-1.39-26.17c.1,0,.2,.02,.3,.03l.12,.02,.46,.06v25.34l-.57-.05c-.22-.02-.43-.03-.64-.03-1.69,0-3.1,.63-4.33,1.92l-.85,.9-.05-1.23v-.09c0-.06-.01-.12-.01-.17v-9.96s0-1.94,0-1.94v-3.26s0-3.26,0-3.26v-.65c0-.52,0-1.04,0-1.56,0-.11,0-.23,0-.34,0-.38,0-.78,.05-1.18,.19-1.47,.9-2.67,2.11-3.55,.9-.65,1.93-.99,3.06-.99,.12,0,.24,0,.37,.01Z"/>
          <path class="cls-1" d="M55.25,29.15H31.11c-.04,3.25-.02,21.71,.02,24.95h24.11c.04-3.22,.06-21.71,.02-24.95Zm-.45,13.23v11.26h-14.83v-6.16h-.46v6.16h-7.88l-.05-.47v-.06c-.02-.07-.02-.15-.02-.23,0-1.49,0-2.98,0-4.48v-.9s0-.55,0-.55c0-.73,0-1.46,0-2.19,0,0,0-.02,0-.03-.01-.03-.02-.07-.03-.1l-.03-.11,.02-.11s.02-.08,.03-.12c0-.04,.02-.09,.02-.11,0-.34,0-.67,0-1.01v-.53c0-.07,0-.13,.01-.19v-.05s.03-.34,.03-.34l.32-.12c.1-.04,.22-.08,3.49-.08,3.53,0,3.66,.05,3.76,.09l.34,.13v1.35c.09,0,.2,0,.32,0,.04,0,.08,0,.12,0v-3.58h-.21c-.08,0-.15,0-.23,0,0,.08,0,.17,0,.26,0,.26,0,.53-.02,.81l-.05,.47h-7.83l-.03-.49v-.09c-.01-.08-.02-.15-.02-.23,0-2.13,0-4.26,0-6.39v-.72c0-.41,0-.82,0-1.22,0-.04,0-.09-.01-.13,0-.04-.01-.07-.01-.11v-.06s0-.06,0-.06c0-.04,0-.08,.01-.12,0-.06,.02-.12,.02-.18,0-.25,0-.49,0-.74v-.46c0-.06,0-.12,0-.19v-.08s.03-.44,.03-.44l.43-.05h.06c.08-.02,.15-.03,.22-.03h.22s.42,0,.42,0h.42c.18,0,.36,0,.54,0,.16,0,.31-.01,.47-.02h.23s.05-.02,.05-.02h.05s.07,.02,.1,.02c.03,0,.06,.01,.08,.01,.74,0,1.47,0,2.21,0h1.66c.07,0,.13,0,.21,.02h.07s.47,.06,.47,.06v6.1h.45v-5.95l.33-.13c.09-.04,.24-.1,3-.1,1.73,0,1.87,.03,1.94,.05l.37,.09,.03,.38v.05c.01,.06,.02,.12,.02,.19v.32c.02,.29,.03,.6,.03,.9,0,.22-.01,.45-.02,.68,0,.16-.01,.32-.02,.48,0,.25,0,.49,0,.74h.46c0-.39,0-.77,0-1.15,0-.73-.02-1.48,.03-2.23l.03-.49h8.67v11.79h-8.72v-1.5h-.44v1.98h9.16v.52Z"/>
        </g>
      </g>
    </g>
  </g>
</svg>