<?xml version="1.0" encoding="UTF-8"?>
<svg id="Layer_2" data-name="Layer 2" xmlns="http://www.w3.org/2000/svg" viewBox="0 0 29.08 12.01">
  <defs>
    <style>
      .cls-1 {
        fill: #fff;
      }
    </style>
  </defs>
  <g id="Calque_1" data-name="Calque 1">
    <g>
      <path class="cls-1" d="M2.86,9.21h5.62v2.63H0v-2.63c0-3.85,5.69-3.49,5.69-5.53,0-.56-.43-1.05-1.28-1.05-.92,0-1.61,.43-1.61,1.15H0C0,1.68,2.01,0,4.44,0c2.27,0,4.04,1.45,4.04,3.78,0,3.93-5.62,3.54-5.62,5.43"/>
      <path class="cls-1" d="M20.2,4.41v3.19c0,3.01-2.38,4.41-4.73,4.41s-4.73-1.4-4.73-4.41v-3.19C10.73,1.4,13.11,0,15.46,0s4.73,1.4,4.73,4.41m-2.79,3.19v-3.19c0-1.18-.92-1.78-1.94-1.78s-1.94,.59-1.94,1.78v3.19c0,1.18,.92,1.78,1.94,1.78s1.94-.59,1.94-1.78"/>
      <polygon class="cls-1" points="25.97 4.09 28.83 8.22 26.75 8.22 24.8 5.42 24.2 6.11 24.2 8.22 22.43 8.22 22.43 .84 24.2 .84 24.2 3.52 26.56 .84 28.83 .84 25.97 4.09"/>
      <rect class="cls-1" x="22.43" y="10.42" width="6.65" height="1.58"/>
    </g>
  </g>
</svg>