<?xml version="1.0" encoding="UTF-8"?>
<svg id="Layer_2" data-name="Layer 2" xmlns="http://www.w3.org/2000/svg" viewBox="0 0 225.84 88.96">
  <defs>
    <style>
      .cls-1 {
        fill: #fff;
      }
    </style>
  </defs>
  <g id="Calque_1" data-name="Calque 1">
    <g>
      <g>
        <path class="cls-1" d="M33.11,53.72l26.63,33.11h-17.71l-18.99-23.5-8.8,8.34v15.17H0V0H14.24V52.56l25.59-24.31h19.91l-26.63,25.47Z"/>
        <path class="cls-1" d="M88.92,27.09c10.88,0,18.76,6.14,21.77,13.55l.81-12.39h13.55v58.58h-13.55l-.81-12.5c-3.01,7.53-10.88,13.66-21.77,13.66-16.79,0-28.25-13.66-28.25-30.45s11.46-30.45,28.25-30.45Zm3.24,47.47c9.96,0,17.02-7.76,17.02-17.02s-7.06-17.02-17.02-17.02-17.25,7.76-17.25,17.02,7.18,17.02,17.25,17.02Z"/>
        <path class="cls-1" d="M151.44,86.84h-14.24V0h14.24V86.84Z"/>
      </g>
      <path class="cls-1" d="M224.62,64.4h-19.6l-15.79-22.59-3.94,4.49v18.1h-16.59V1.26h16.59V21.9L203.45,1.26h21.46l-24.62,28.02,24.33,35.12Zm-18.59-1.94h14.88l-23.08-33.32L220.63,3.2h-16.3l-20.98,23.84V3.2h-12.71V62.46h12.71v-16.9l6.06-6.89,16.63,23.79Z"/>
      <path class="cls-1" d="M225.84,88.96h-57.14v-15.08h57.14v15.08Zm-55.2-1.94h53.26v-11.2h-53.26v11.2Z"/>
    </g>
  </g>
</svg>